<?xml version="1.0" encoding="utf-8"?>
<!-- Generator: Adobe Illustrator 27.8.0, SVG Export Plug-In . SVG Version: 6.00 Build 0)  -->
<svg version="1.1" id="Layer_1" xmlns="http://www.w3.org/2000/svg" xmlns:xlink="http://www.w3.org/1999/xlink" x="0px" y="0px"
	 viewBox="0 0 200 200" style="enable-background:new 0 0 200 200;" xml:space="preserve">
<style type="text/css">
	.st0{fill:url(#SVGID_1_);}
	.st1{fill:url(#SVGID_00000072977876710529970560000015645383802168146572_);}
	.st2{fill:url(#SVGID_00000007386915594994915730000002372993603864327824_);}
</style>
<g id="blue_line">
	<g>
		<g>
			<g>
				<linearGradient id="SVGID_1_" gradientUnits="userSpaceOnUse" x1="106.6537" y1="6.8565" x2="90.3859" y2="192.7986">
					<stop  offset="0" style="stop-color:#7AC143"/>
					<stop  offset="0.318" style="stop-color:#76C044"/>
					<stop  offset="0.5434" style="stop-color:#6CBC48"/>
					<stop  offset="0.7401" style="stop-color:#58B650"/>
					<stop  offset="0.9194" style="stop-color:#31AE5A"/>
					<stop  offset="0.9993" style="stop-color:#00AA5F"/>
				</linearGradient>
				<path class="st0" d="M98.5,193.1c-51.5,0-93.3-41.9-93.3-93.3c0-51.5,41.9-93.3,93.3-93.3c51.5,0,93.3,41.9,93.3,93.3
					C191.8,151.3,150,193.1,98.5,193.1z M98.5,14c-47.3,0-85.8,38.5-85.8,85.8s38.5,85.8,85.8,85.8s85.8-38.5,85.8-85.8
					S145.8,14,98.5,14z"/>
			</g>
		</g>
		<g>
			
				<linearGradient id="SVGID_00000056422715265190538580000004985189752487292565_" gradientUnits="userSpaceOnUse" x1="97.7336" y1="53.8264" x2="89.5162" y2="147.7519">
				<stop  offset="0" style="stop-color:#7AC143"/>
				<stop  offset="0.318" style="stop-color:#76C044"/>
				<stop  offset="0.5434" style="stop-color:#6CBC48"/>
				<stop  offset="0.7401" style="stop-color:#58B650"/>
				<stop  offset="0.9194" style="stop-color:#31AE5A"/>
				<stop  offset="0.9993" style="stop-color:#00AA5F"/>
			</linearGradient>
			<path style="fill:url(#SVGID_00000056422715265190538580000004985189752487292565_);" d="M127.1,115.4c1-1.8,0.4-4.1-1.5-5.1
				c-2.6-1.4-5.2-2.6-8-3.5c7.6-5.2,12.7-13.9,12.7-23.8c0-15.8-12.9-28.7-28.7-28.7C85.8,54.3,73,67.1,73,82.9
				c0,9.9,5,18.6,12.7,23.8c-4.2,1.4-8.3,3.5-12,6c-8.1,5.5-14.3,13.2-17.9,22.3c-0.9,2.3-0.7,5,0.7,7c1.4,2.1,3.7,3.3,6.2,3.3H96
				c2.1,0,3.8-1.7,3.8-3.8c0-2.1-1.7-3.8-3.8-3.8l-33.3,0c6.4-15.9,21.7-26.2,38.9-26.2c0,0,0,0,0,0c0,0,0,0,0,0
				c7.1,0,14.1,1.8,20.3,5.2C123.8,117.9,126.1,117.2,127.1,115.4z M101.7,104.1C101.7,104.1,101.7,104.1,101.7,104.1
				C101.6,104.1,101.6,104.1,101.7,104.1c-11.7,0-21.2-9.5-21.2-21.1c0-11.7,9.5-21.1,21.1-21.1c11.7,0,21.1,9.5,21.1,21.1
				C122.8,94.6,113.3,104.1,101.7,104.1z"/>
			
				<linearGradient id="SVGID_00000008131577756408110680000011487679783815020680_" gradientUnits="userSpaceOnUse" x1="126.3177" y1="117.302" x2="123.8445" y2="145.5711">
				<stop  offset="0" style="stop-color:#7AC143"/>
				<stop  offset="0.318" style="stop-color:#76C044"/>
				<stop  offset="0.5434" style="stop-color:#6CBC48"/>
				<stop  offset="0.7401" style="stop-color:#58B650"/>
				<stop  offset="0.9194" style="stop-color:#31AE5A"/>
				<stop  offset="0.9993" style="stop-color:#00AA5F"/>
			</linearGradient>
			<path style="fill:url(#SVGID_00000008131577756408110680000011487679783815020680_);" d="M140.6,119.3c-1.6-1.4-4-1.2-5.3,0.4
				L121,136l-5.6-5.6c-1.5-1.5-3.9-1.5-5.3,0c-1.5,1.5-1.5,3.9,0,5.3l8.5,8.5c0.7,0.7,1.7,1.1,2.7,1.1c0,0,0.1,0,0.1,0
				c1,0,2-0.5,2.7-1.3l16.9-19.4C142.3,123,142.1,120.6,140.6,119.3z"/>
		</g>
	</g>
</g>
</svg>
